<svg width="691.49375px" height="122px" xmlns="http://www.w3.org/2000/svg" viewBox="-95.74687499999999 14 691.49375 122" style="background: rgba(0, 0, 0, 0);" preserveAspectRatio="xMidYMid"><defs><filter id="editing-extrude-glow"><feFlood flood-color="rgba(20%,20%,20%,0.484)" result="flood-1"></feFlood><feMorphology operator="erode" radius="1" in="SourceAlpha" result="erode"></feMorphology><feComposite operator="in" in="flood-1" in2="erode" result="comp1"></feComposite><feConvolveMatrix order="3,3" divisor="1" in="comp1" result="convolve" kernelMatrix="0 0 0 1 1 1 0 0 0"></feConvolveMatrix><feOffset dx="-3" dy="0" in="convolve" result="extrude"></feOffset><feComposite operator="in" in="flood-1" in2="extrude" result="comp-extrude"></feComposite><feFlood flood-color="rgba(0%,0%,0%,0)" result="flood-2"></feFlood><feComposite operator="in" in="flood-2" in2="SourceAlpha" result="comp2"></feComposite><feMorphology operator="dilate" radius="1" in="comp2" result="dilate"></feMorphology><feOffset dx="-4.5" dy="0" in="dilate" result="offset"></feOffset><feGaussianBlur in="offset" stdDeviation="5.8" result="blur"></feGaussianBlur><feComponentTransfer in="blur" result="shadow"><feFuncA type="linear" slope="0.8" intercept="-0.2"></feFuncA></feComponentTransfer><feMerge><feMergeNode in="shadow"></feMergeNode><feMergeNode in="comp-extrude"></feMergeNode><feMergeNode in="SourceGraphic"></feMergeNode></feMerge></filter></defs><g filter="url(#editing-extrude-glow)"><g transform="translate(2.029977560043335, 104.76000213623047)"><path d="M2.05-15.62L2.05-15.62L2.05-15.62Q2.05-27.71 8.32-35.33L8.32-35.33L8.32-35.33Q14.98-43.58 26.56-43.58L26.56-43.58L26.56-43.58Q34.94-43.58 39.17-39.52L39.17-39.52L39.17-39.52Q43.39-35.46 43.39-26.88L43.39-26.88L43.39-26.88Q43.39-13.82 36.74-6.21L36.74-6.21L36.74-6.21Q30.14 1.28 19.07 1.28L19.07 1.28L19.07 1.28Q10.43 1.28 6.24-3.04L6.24-3.04L6.24-3.04Q2.05-7.36 2.05-15.62ZM18.88-28.86L18.88-28.86L18.88-28.86Q16-17.34 16-8.26L16-8.26L16-8.26Q16-6.08 16.74-4.67L16.74-4.67L16.74-4.67Q17.47-3.26 19.42-3.26L19.42-3.26L19.42-3.26Q21.38-3.26 22.59-4.19L22.59-4.19L22.59-4.19Q23.81-5.12 24.77-7.23L24.77-7.23L24.77-7.23Q26.30-10.69 27.74-18.02L27.74-18.02L27.74-18.02Q29.18-25.34 29.31-28.38L29.31-28.38L29.31-28.38Q29.44-31.42 29.44-33.73L29.44-33.73L29.44-33.73Q29.44-36.03 28.74-37.50L28.74-37.50L28.74-37.50Q28.03-38.98 26.14-38.98L26.14-38.98L26.14-38.98Q24.26-38.98 22.98-37.82L22.98-37.82L22.98-37.82Q20.61-35.65 18.88-28.86ZM76.35-4.38L76.35-4.38L76.35-4.38Q73.66-1.66 69.98-0.19L69.98-0.19L69.98-0.19Q66.30 1.28 62.66 1.28L62.66 1.28L62.66 1.28Q59.01 1.28 57.73 0.64L57.73 0.64L55.74 11.52L42.75 12.80L51.58-32.64L62.02-33.73L61.18-29.31L61.18-29.31Q63.87-33.86 69.44-33.86L69.44-33.86L69.44-33.86Q75.71-33.86 79.04-29.82L79.04-29.82L79.04-29.82Q81.98-26.18 81.98-20.61L81.98-20.61L81.98-20.61Q81.98-15.04 80.51-11.07L80.51-11.07L80.51-11.07Q79.04-7.10 76.35-4.38ZM61.89-22.34L58.50-3.58L58.50-3.58Q59.84-2.43 61.50-2.43L61.50-2.43L61.50-2.43Q63.17-2.43 64.13-3.07L64.13-3.07L64.13-3.07Q65.09-3.71 65.79-4.99L65.79-4.99L65.79-4.99Q67.71-8.45 69.25-18.94L69.25-18.94L69.25-18.94Q69.70-22.02 69.70-25.02L69.70-25.02L69.70-25.02Q69.70-28.03 69.02-28.99L69.02-28.99L69.02-28.99Q68.35-29.95 67.07-29.95L67.07-29.95L67.07-29.95Q63.17-29.95 61.89-22.34L61.89-22.34ZM111.74-10.82L111.74-10.82L111.74-10.82Q113.34-9.73 113.34-7.33L113.34-7.33L113.34-7.33Q113.34-4.93 112.13-3.39L112.13-3.39L112.13-3.39Q110.91-1.86 108.93-0.83L108.93-0.83L108.93-0.83Q104.83 1.28 100.42 1.28L100.42 1.28L100.42 1.28Q96.00 1.28 93.41 0.32L93.41 0.32L93.41 0.32Q90.82-0.64 89.09-2.43L89.09-2.43L89.09-2.43Q85.70-5.82 85.70-12.03L85.70-12.03L85.70-12.03Q85.70-21.70 90.94-27.58L90.94-27.58L90.94-27.58Q96.58-33.92 106.37-33.92L106.37-33.92L106.37-33.92Q112.45-33.92 115.46-31.36L115.46-31.36L115.46-31.36Q117.70-29.44 117.70-26.30L117.70-26.30L117.70-26.30Q117.70-15.04 98.24-15.04L98.24-15.04L98.24-15.04Q97.98-13.38 97.98-11.97L97.98-11.97L97.98-11.97Q97.98-9.02 99.30-7.90L99.30-7.90L99.30-7.90Q100.61-6.78 103.04-6.78L103.04-6.78L103.04-6.78Q105.47-6.78 108.06-7.90L108.06-7.90L108.06-7.90Q110.66-9.02 111.74-10.82ZM98.69-17.79L98.69-17.79L98.69-17.79Q103.23-17.79 105.86-20.61L105.86-20.61L105.86-20.61Q108.48-23.30 108.48-27.58L108.48-27.58L108.48-27.58Q108.48-29.06 107.94-29.86L107.94-29.86L107.94-29.86Q107.39-30.66 106.30-30.66L106.30-30.66L106.30-30.66Q105.22-30.66 104.29-30.24L104.29-30.24L104.29-30.24Q103.36-29.82 102.40-28.42L102.40-28.42L102.40-28.42Q100.03-25.22 98.69-17.79ZM146.94 1.28L146.94 1.28L146.94 1.28Q139.20 1.28 139.20-4.74L139.20-4.74L139.20-4.74Q139.26-6.40 139.78-9.22L139.78-9.22L140.93-15.10L140.93-15.10Q142.66-23.42 142.66-25.28L142.66-25.28L142.66-25.28Q142.66-28.99 140.48-28.99L140.48-28.99L140.48-28.99Q136.83-28.99 134.91-19.46L134.91-19.46L131.14 0L118.27 1.28L124.93-32.70L135.42-33.92L134.40-27.65L134.40-27.65Q137.41-33.92 146.62-33.92L146.62-33.92L146.62-33.92Q151.10-33.92 152.99-32.03L152.99-32.03L152.99-32.03Q154.88-30.14 154.88-25.92L154.88-25.92L154.88-25.92Q154.88-21.95 152.83-12.67L152.83-12.67L152.83-12.67Q151.87-8.51 151.87-6.94L151.87-6.94L151.87-6.94Q151.87-5.38 152.74-4.48L152.74-4.48L152.74-4.48Q153.60-3.58 154.88-3.46L154.88-3.46L154.88-3.46Q154.24-1.28 152.03 0L152.03 0L152.03 0Q149.82 1.28 146.94 1.28ZM165.12-31.17L165.12-31.17L165.12-31.17Q162.94-32.83 162.94-36.38L162.94-36.38L162.94-36.38Q162.94-39.94 165.28-41.79L165.28-41.79L165.28-41.79Q167.62-43.65 171.65-43.65L171.65-43.65L171.65-43.65Q174.21-43.65 180.29-42.75L180.29-42.75L184.64-42.11L184.64-42.11Q186.82-41.86 189.09-41.86L189.09-41.86L189.09-41.86Q191.36-41.86 192.90-42.82L192.90-42.82L192.90-42.82Q195.20-40.77 195.20-37.82L195.20-37.82L195.20-37.82Q195.20-34.88 192.58-32.77L192.58-32.77L192.58-32.77Q189.89-30.53 186.43-30.53L186.43-30.53L186.43-30.53Q184.77-30.53 182.08-30.98L182.08-30.98L182.08-30.98Q178.94-21.12 178.94-14.27L178.94-14.27L178.94-14.27Q178.94-7.42 182.40-3.84L182.40-3.84L182.40-3.84Q180.80-0.96 178.43 0.16L178.43 0.16L178.43 0.16Q176.06 1.28 172.51 1.28L172.51 1.28L172.51 1.28Q168.96 1.28 166.75-0.67L166.75-0.67L166.75-0.67Q164.54-2.62 164.54-6.66L164.54-6.66L164.54-6.66Q164.54-11.33 167.10-19.01L167.10-19.01L167.10-19.01Q169.66-26.62 173.50-32.45L173.50-32.45L173.50-32.45Q171.65-32.64 169.73-32.64L169.73-32.64L169.73-32.64Q165.76-32.64 165.12-31.17ZM212.80-17.98L212.80-17.98L212.80-17.98Q215.10-22.08 215.10-26.24L215.10-26.24L215.10-26.24Q215.10-28.99 213.12-28.99L213.12-28.99L213.12-28.99Q211.58-28.99 209.98-26.37L209.98-26.37L209.98-26.37Q208.32-23.74 207.81-20.35L207.81-20.35L204.48 0L191.23 1.28L197.76-32.64L208.32-33.92L207.17-27.46L207.17-27.46Q210.30-33.92 217.34-33.92L217.34-33.92L217.34-33.92Q221.06-33.92 223.07-32L223.07-32L223.07-32Q225.09-30.08 225.09-26.14L225.09-26.14L225.09-26.14Q225.09-22.21 222.50-19.71L222.50-19.71L222.50-19.71Q219.90-17.22 215.49-17.22L215.49-17.22L215.49-17.22Q213.57-17.22 212.80-17.98ZM241.47-3.52L241.47-3.52L241.47-3.52Q239.49 1.28 233.15 1.28L233.15 1.28L233.15 1.28Q229.89 1.28 227.84-0.96L227.84-0.96L227.84-0.96Q226.11-2.94 226.11-4.93L226.11-4.93L226.11-4.93Q226.11-10.11 228.48-20.22L228.48-20.22L230.85-32.64L243.84-33.92L239.94-13.70L239.94-13.70Q238.85-8.96 238.85-7.30L238.85-7.30L238.85-7.30Q238.85-3.65 241.47-3.52ZM232.00-41.54L232.00-41.54L232.00-41.54Q232.00-44.03 234.08-45.38L234.08-45.38L234.08-45.38Q236.16-46.72 239.17-46.72L239.17-46.72L239.17-46.72Q242.18-46.72 244.00-45.38L244.00-45.38L244.00-45.38Q245.82-44.03 245.82-41.54L245.82-41.54L245.82-41.54Q245.82-39.04 243.81-37.76L243.81-37.76L243.81-37.76Q241.79-36.48 238.78-36.48L238.78-36.48L238.78-36.48Q235.78-36.48 233.89-37.76L233.89-37.76L233.89-37.76Q232.00-39.04 232.00-41.54ZM270.14-31.55L270.14-31.55L270.14-31.55Q272.26-33.92 275.90-33.92L275.90-33.92L275.90-33.92Q278.14-33.92 279.87-32.70L279.87-32.70L279.87-32.70Q281.60-31.49 281.60-29.22L281.60-29.22L281.60-29.22Q281.60-26.94 280.90-24.51L280.90-24.51L280.90-24.51Q280.19-22.08 279.10-19.58L279.10-19.58L279.10-19.58Q276.93-14.72 273.92-10.69L273.92-10.69L273.92-10.69Q269.70-4.86 265.63-1.79L265.63-1.79L265.63-1.79Q261.57 1.28 257.15 1.28L257.15 1.28L257.15 1.28Q253.57 1.28 251.39 0.45L251.39 0.45L251.39 0.45Q251.01-12.99 250.53-17.79L250.53-17.79L250.53-17.79Q250.05-22.59 249.66-25.22L249.66-25.22L249.66-25.22Q249.02-30.34 247.10-31.55L247.10-31.55L247.10-31.55Q248.58-32.83 250.02-33.38L250.02-33.38L250.02-33.38Q251.46-33.92 254.43-33.92L254.43-33.92L254.43-33.92Q257.41-33.92 259.52-31.58L259.52-31.58L259.52-31.58Q261.63-29.25 262.05-25.12L262.05-25.12L262.05-25.12Q262.46-20.99 262.46-16L262.46-16L262.46-16Q262.46-11.01 262.08-4.99L262.08-4.99L262.08-4.99Q264.06-6.40 266.18-10.69L266.18-10.69L266.18-10.69Q269.06-16.64 270.08-23.81L270.08-23.81L270.08-23.81Q270.40-25.98 270.40-28.29L270.40-28.29L270.40-28.29Q270.40-30.59 270.14-31.55ZM298.69-3.52L298.69-3.52L298.69-3.52Q296.70 1.28 290.37 1.28L290.37 1.28L290.37 1.28Q287.10 1.28 285.06-0.96L285.06-0.96L285.06-0.96Q283.33-2.94 283.33-4.93L283.33-4.93L283.33-4.93Q283.33-10.11 285.70-20.22L285.70-20.22L288.06-32.64L301.06-33.92L297.15-13.70L297.15-13.70Q296.06-8.96 296.06-7.30L296.06-7.30L296.06-7.30Q296.06-3.65 298.69-3.52ZM289.22-41.54L289.22-41.54L289.22-41.54Q289.22-44.03 291.30-45.38L291.30-45.38L291.30-45.38Q293.38-46.72 296.38-46.72L296.38-46.72L296.38-46.72Q299.39-46.72 301.22-45.38L301.22-45.38L301.22-45.38Q303.04-44.03 303.04-41.54L303.04-41.54L303.04-41.54Q303.04-39.04 301.02-37.76L301.02-37.76L301.02-37.76Q299.01-36.48 296-36.48L296-36.48L296-36.48Q292.99-36.48 291.10-37.76L291.10-37.76L291.10-37.76Q289.22-39.04 289.22-41.54ZM306.91-1.92L306.91-1.92L306.91-1.92Q305.41-3.58 304.74-6.21L304.74-6.21L304.74-6.21Q304.06-8.83 304.06-13.12L304.06-13.12L304.06-13.12Q304.06-17.41 305.54-21.31L305.54-21.31L305.54-21.31Q307.01-25.22 309.70-28.03L309.70-28.03L309.70-28.03Q315.20-33.92 324.29-33.92L324.29-33.92L324.29-33.92Q327.55-33.92 329.92-32.83L329.92-32.83L340.86-33.92L336.13-8.96L336.13-8.96Q335.94-8.19 335.94-6.78L335.94-6.78L335.94-6.78Q335.94-5.38 336.80-4.48L336.80-4.48L336.80-4.48Q337.66-3.58 338.94-3.46L338.94-3.46L338.94-3.46Q338.30-1.28 335.97 0L335.97 0L335.97 0Q333.63 1.28 331.01 1.28L331.01 1.28L331.01 1.28Q328.38 1.28 326.62 0.29L326.62 0.29L326.62 0.29Q324.86-0.70 324.35-2.37L324.35-2.37L324.35-2.37Q323.33-0.77 321.15 0.26L321.15 0.26L321.15 0.26Q318.98 1.28 316.06 1.28L316.06 1.28L316.06 1.28Q313.15 1.28 310.78 0.51L310.78 0.51L310.78 0.51Q308.42-0.26 306.91-1.92ZM320.42-27.90L320.42-27.90L320.42-27.90Q319.68-26.75 319.04-24.80L319.04-24.80L319.04-24.80Q318.40-22.85 317.34-17.63L317.34-17.63L317.34-17.63Q316.29-12.42 316.29-8.70L316.29-8.70L316.29-8.70Q316.29-4.99 316.86-3.90L316.86-3.90L316.86-3.90Q317.44-2.82 318.46-2.82L318.46-2.82L318.46-2.82Q320.51-2.82 322.02-4.77L322.02-4.77L322.02-4.77Q323.52-6.72 324.10-10.18L324.10-10.18L327.49-28.93L327.49-28.93Q326.14-30.08 324.58-30.08L324.58-30.08L324.58-30.08Q323.01-30.08 322.08-29.57L322.08-29.57L322.08-29.57Q321.15-29.06 320.42-27.90ZM363.65 0.83L365.06-3.84L365.06-3.84Q367.30-2.62 370.62-2.62L370.62-2.62L370.62-2.62Q373.95-2.62 376.74-4.64L376.74-4.64L376.74-4.64Q379.52-6.66 381.50-10.37L381.50-10.37L381.50-10.37Q385.60-18.24 385.60-30.91L385.60-30.91L385.60-30.91Q385.60-38.98 381.95-38.98L381.95-38.98L381.95-38.98Q380.03-38.98 378.18-36.86L378.18-36.86L378.18-36.86Q376.32-34.75 374.85-31.36L374.85-31.36L374.85-31.36Q371.65-23.62 371.65-14.53L371.65-14.53L371.65-14.53Q371.65-12.67 372.54-11.55L372.54-11.55L372.54-11.55Q373.44-10.43 375.04-10.43L375.04-10.43L375.04-10.43Q374.78-8.45 373.06-7.04L373.06-7.04L373.06-7.04Q371.33-5.63 369.15-5.63L369.15-5.63L369.15-5.63Q363.97-5.63 361.31-8.86L361.31-8.86L361.31-8.86Q358.66-12.10 358.66-17.95L358.66-17.95L358.66-17.95Q358.66-23.81 360.45-28.42L360.45-28.42L360.45-28.42Q362.24-33.02 365.38-36.38L365.38-36.38L365.38-36.38Q368.51-39.74 372.83-41.66L372.83-41.66L372.83-41.66Q377.15-43.58 382.27-43.58L382.27-43.58L382.27-43.58Q399.42-43.58 399.42-26.88L399.42-26.88L399.42-26.88Q399.42-14.85 393.66-7.49L393.66-7.49L393.66-7.49Q387.90-0.06 377.92 0.83L377.92 0.83L377.92 0.83Q383.81 2.11 389.76 2.11L389.76 2.11L389.76 2.11Q394.43 2.11 397.89 0.13L397.89 0.13L397.89 0.13Q398.85-0.45 399.23-1.09L399.23-1.09L399.23-1.09Q401.15 0.64 401.15 4.06L401.15 4.06L401.15 4.06Q401.15 7.49 398.11 9.47L398.11 9.47L398.11 9.47Q395.07 11.46 389.15 11.46L389.15 11.46L389.15 11.46Q383.23 11.46 376.38 8.70L376.38 8.70L376.38 8.70Q369.54 5.95 363.65 0.83L363.65 0.83ZM423.04-2.69L423.04-2.69L423.04-2.69Q419.97 1.28 412.35 1.28L412.35 1.28L412.35 1.28Q408.38 1.28 405.50-1.12L405.50-1.12L405.50-1.12Q402.62-3.52 402.62-6.98L402.62-6.98L402.62-6.98Q402.62-8.90 402.82-9.86L402.82-9.86L407.10-32.64L420.10-33.92L415.42-9.22L415.42-9.22Q415.17-7.81 415.17-6.98L415.17-6.98L415.17-6.98Q415.17-3.26 417.41-3.26L417.41-3.26L417.41-3.26Q419.90-3.26 421.70-6.66L421.70-6.66L421.70-6.66Q422.27-7.74 422.53-9.15L422.53-9.15L427.07-32.64L439.68-33.92L434.94-8.96L434.94-8.96Q434.75-8 434.75-6.98L434.75-6.98L434.75-6.98Q434.75-5.95 435.33-4.83L435.33-4.83L435.33-4.83Q435.90-3.71 437.76-3.46L437.76-3.46L437.76-3.46Q437.38-1.92 436.03-0.90L436.03-0.90L436.03-0.90Q433.22 1.28 430.18 1.28L430.18 1.28L430.18 1.28Q427.14 1.28 425.34 0.19L425.34 0.19L425.34 0.19Q423.55-0.90 423.04-2.69ZM458.50-3.52L458.50-3.52L458.50-3.52Q456.51 1.28 450.18 1.28L450.18 1.28L450.18 1.28Q446.91 1.28 444.86-0.96L444.86-0.96L444.86-0.96Q443.14-2.94 443.14-4.93L443.14-4.93L443.14-4.93Q443.14-10.11 445.50-20.22L445.50-20.22L447.87-32.64L460.86-33.92L456.96-13.70L456.96-13.70Q455.87-8.96 455.87-7.30L455.87-7.30L455.87-7.30Q455.87-3.65 458.50-3.52ZM449.02-41.54L449.02-41.54L449.02-41.54Q449.02-44.03 451.10-45.38L451.10-45.38L451.10-45.38Q453.18-46.72 456.19-46.72L456.19-46.72L456.19-46.72Q459.20-46.72 461.02-45.38L461.02-45.38L461.02-45.38Q462.85-44.03 462.85-41.54L462.85-41.54L462.85-41.54Q462.85-39.04 460.83-37.76L460.83-37.76L460.83-37.76Q458.82-36.48 455.81-36.48L455.81-36.48L455.81-36.48Q452.80-36.48 450.91-37.76L450.91-37.76L450.91-37.76Q449.02-39.04 449.02-41.54ZM476.26 0.64L476.26 0.64L476.26 0.64Q473.22 0 471.65-0.29L471.65-0.29L471.65-0.29Q470.08-0.58 468.26-0.58L468.26-0.58L468.26-0.58Q466.43-0.58 464.64 0.06L464.64 0.06L464.64 0.06Q463.68-0.51 463.07-1.66L463.07-1.66L463.07-1.66Q462.46-2.82 462.46-4.61L462.46-4.61L462.46-4.61Q462.46-8.38 466.30-11.26L466.30-11.26L482.56-22.98L482.56-22.98Q478.02-24.26 473.89-24.26L473.89-24.26L473.89-24.26Q469.76-24.26 468.29-21.44L468.29-21.44L468.29-21.44Q466.11-24 466.11-28.03L466.11-28.03L466.11-28.03Q466.11-30.72 468.06-32.48L468.06-32.48L468.06-32.48Q470.02-34.24 474.11-34.24L474.11-34.24L474.11-34.24Q476.42-34.24 478.50-33.95L478.50-33.95L478.50-33.95Q480.58-33.66 482.43-33.41L482.43-33.41L485.89-32.90L485.89-32.90Q487.55-32.64 489.25-32.64L489.25-32.64L489.25-32.64Q490.94-32.64 492.22-33.34L492.22-33.34L492.22-33.34Q493.89-31.81 493.89-29.70L493.89-29.70L493.89-29.70Q493.89-26.37 489.79-22.91L489.79-22.91L473.60-10.82L473.60-10.82Q478.59-9.34 481.15-9.34L481.15-9.34L481.15-9.34Q486.53-9.34 488.83-11.90L488.83-11.90L488.83-11.90Q490.62-9.86 490.62-6.30L490.62-6.30L490.62-6.30Q490.62-2.75 488.32-0.74L488.32-0.74L488.32-0.74Q486.02 1.28 481.86 1.28L481.86 1.28L481.86 1.28Q479.30 1.28 476.26 0.64Z" fill="#ffa726"></path></g></g><style>text {
  font-size: 64px;
  font-family: Arial Black;
  dominant-baseline: central;
  text-anchor: middle;
}</style></svg>